<svg width="14" height="13" viewBox="0 0 14 13" fill="none" xmlns="http://www.w3.org/2000/svg">
<path d="M2.07502 9.28571C1.03368 9.28571 0.186401 10.1189 0.186401 11.1429C0.186401 12.1668 1.03368 13 2.07502 13C3.11636 13 3.96364 12.1668 3.96364 11.1429C3.96364 10.1189 3.11636 9.28571 2.07502 9.28571Z" fill="#A0BCE4"/>
<path d="M6.79657 9.28571C5.75523 9.28571 4.90795 10.1189 4.90795 11.1429C4.90795 12.1668 5.75523 13 6.79657 13C7.83791 13 8.68519 12.1668 8.68519 11.1429C8.68519 10.1189 7.83791 9.28571 6.79657 9.28571Z" fill="#A0BCE4"/>
<path d="M11.5181 9.28571C10.4768 9.28571 9.6295 10.1189 9.6295 11.1429C9.6295 12.1668 10.4768 13 11.5181 13C12.5595 13 13.4067 12.1668 13.4067 11.1429C13.4067 10.1189 12.5595 9.28571 11.5181 9.28571Z" fill="#A0BCE4"/>
<path d="M2.07502 4.64286C1.03368 4.64286 0.186401 5.47602 0.186401 6.5C0.186401 7.52398 1.03368 8.35714 2.07502 8.35714C3.11636 8.35714 3.96364 7.52398 3.96364 6.5C3.96364 5.47602 3.11636 4.64286 2.07502 4.64286Z" fill="#A0BCE4"/>
<path d="M6.79657 4.64286C5.75523 4.64286 4.90795 5.47602 4.90795 6.5C4.90795 7.52398 5.75523 8.35714 6.79657 8.35714C7.83791 8.35714 8.68519 7.52398 8.68519 6.5C8.68519 5.47602 7.83791 4.64286 6.79657 4.64286Z" fill="#A0BCE4"/>
<path d="M11.5181 4.64286C10.4768 4.64286 9.6295 5.47602 9.6295 6.5C9.6295 7.52398 10.4768 8.35714 11.5181 8.35714C12.5595 8.35714 13.4067 7.52398 13.4067 6.5C13.4067 5.47602 12.5595 4.64286 11.5181 4.64286Z" fill="#A0BCE4"/>
<path d="M2.07502 0C1.03368 0 0.186401 0.833161 0.186401 1.85714C0.186401 2.88112 1.03368 3.71429 2.07502 3.71429C3.11636 3.71429 3.96364 2.88112 3.96364 1.85714C3.96364 0.833161 3.11636 0 2.07502 0Z" fill="#A0BCE4"/>
<path d="M6.79657 0C5.75523 0 4.90795 0.833161 4.90795 1.85714C4.90795 2.88112 5.75523 3.71429 6.79657 3.71429C7.83791 3.71429 8.68519 2.88112 8.68519 1.85714C8.68519 0.833161 7.83791 0 6.79657 0Z" fill="#A0BCE4"/>
<path d="M11.5181 3.71429C12.5595 3.71429 13.4067 2.88112 13.4067 1.85714C13.4067 0.833161 12.5595 0 11.5181 0C10.4768 0 9.6295 0.833161 9.6295 1.85714C9.6295 2.88112 10.4768 3.71429 11.5181 3.71429Z" fill="#A0BCE4"/>
</svg>
