<svg width="16" height="20" viewBox="0 0 16 20" fill="none" xmlns="http://www.w3.org/2000/svg">
<path d="M5.88271 17.6471C5.88267 17.6522 5.88232 17.6573 5.88232 17.6625C5.88232 18.9535 6.93577 20 8.23527 20C9.53476 20 10.5882 18.9535 10.5882 17.6625C10.5882 17.6573 10.5879 17.6522 10.5878 17.6471H5.88271Z" fill="#A0BCE4"/>
<path d="M15.1099 14.7717L13.0062 11.6104C13.0062 10.6426 13.0062 8.27797 13.0062 7.66627C13.0062 5.00639 11.1545 2.78922 8.69796 2.28957V1.07504C8.69792 0.481343 8.22744 0 7.64705 0C7.06665 0 6.59617 0.481343 6.59617 1.07504V2.28962C4.13962 2.78931 2.28791 5.00648 2.28791 7.66631C2.28791 8.70759 2.28791 11.0069 2.28791 11.6104L0.184236 14.7717C-0.0373551 15.1047 -0.060789 15.5357 0.123334 15.8918C0.307457 16.2479 0.668921 16.4706 1.0627 16.4706H14.2314C14.6252 16.4706 14.9866 16.2479 15.1708 15.8918C15.3549 15.5357 15.3315 15.1047 15.1099 14.7717Z" fill="#A0BCE4"/>
</svg>
