<svg width="15" height="15" viewBox="0 0 15 15" fill="none" xmlns="http://www.w3.org/2000/svg">
<path fill-rule="evenodd" clip-rule="evenodd" d="M11.1493 10.4319L14.4461 13.6785C14.6025 13.8326 14.6025 14.0873 14.4461 14.2414C14.3679 14.3213 14.2626 14.3599 14.1604 14.3599C14.0581 14.3599 13.9528 14.3184 13.8746 14.2414L10.5777 10.9947C9.561 11.8656 8.23444 12.3929 6.78454 12.3929C3.59598 12.3929 1 9.83646 1 6.69645C1 3.55644 3.59297 1 6.78454 1C9.97311 1 12.5691 3.55348 12.5691 6.69645C12.5691 8.12427 12.0336 9.43063 11.1493 10.4319ZM6.78154 1.79981C4.04117 1.79981 1.80917 3.99486 1.80917 6.69645C1.80917 9.39805 4.04117 11.5961 6.78154 11.5961C9.52491 11.5961 11.7539 9.39509 11.7539 6.69645C11.7539 3.99782 9.52491 1.79981 6.78154 1.79981Z" fill="#405169" stroke="#405169" stroke-width="0.5"/>
</svg>
