<svg width="11" height="12" viewBox="0 0 11 12" fill="none" xmlns="http://www.w3.org/2000/svg">
<path fill-rule="evenodd" clip-rule="evenodd" d="M10.7489 1.96879C10.5816 1.79915 10.3831 1.71432 10.154 1.71432H9.30791V1.07144C9.30791 0.776851 9.20425 0.524601 8.99714 0.314779C8.78991 0.104958 8.54103 0 8.25008 0H7.82711C7.53618 0 7.2872 0.104958 7.08007 0.314803C6.87286 0.524601 6.7693 0.776874 6.7693 1.07146V1.71434H4.23094V1.07146C4.23094 0.776874 4.12732 0.524624 3.92016 0.314803C3.71305 0.104958 3.46405 0 3.17313 0H2.75008C2.45922 0 2.2102 0.104958 2.00304 0.314803C1.79593 0.524601 1.6923 0.776874 1.6923 1.07146V1.71434H0.846205C0.616982 1.71434 0.418692 1.79917 0.25122 1.96882C0.0837476 2.13844 0 2.33939 0 2.57152V11.1429C0 11.3749 0.0837476 11.5758 0.25122 11.7455C0.418669 11.9151 0.616959 12 0.846205 12H10.1538C10.383 12 10.5815 11.9152 10.7487 11.7455C10.9162 11.5759 11 11.3749 11 11.1429V2.5715C11 2.3393 10.9163 2.13844 10.7489 1.96879ZM2.75001 11.1428H0.846205V9.21418H2.75001V11.1428ZM0.846205 8.78572H2.75001V6.64299H0.846205V8.78572ZM2.75001 6.21422H0.846205V4.28574H2.75001V6.21422ZM2.53857 3.00003C2.53857 3.05813 2.55948 3.10825 2.60136 3.15068C2.64325 3.1931 2.6928 3.21431 2.75008 3.21428H3.17313C3.23048 3.21428 3.28 3.1931 3.32184 3.15068C3.36364 3.10827 3.38468 3.05815 3.38468 3.00003V1.07153C3.38468 1.0135 3.36373 0.963265 3.32184 0.920883C3.28003 0.878454 3.23041 0.857275 3.17313 0.857275H2.75008C2.69273 0.857275 2.64325 0.878454 2.60136 0.920883C2.55948 0.963241 2.53857 1.0135 2.53857 1.07153V3.00003ZM5.28851 11.1428H3.17306V9.21418H5.28851V11.1428ZM3.17306 8.78572H5.28851V6.64299H3.17306V8.78572ZM5.28851 6.21422H3.17306V4.28574H5.28851V6.21422ZM5.71167 11.1428H7.82711V9.21418H5.71167V11.1428ZM7.82711 8.78572H5.71167V6.64299H7.82711V8.78572ZM5.71167 6.21422H7.82711V4.28574H5.71167V6.21422ZM7.6783 3.15068C7.63646 3.10825 7.61562 3.05813 7.61562 3.00003V1.07153C7.61562 1.0135 7.63646 0.963241 7.6783 0.920883C7.72016 0.878454 7.76973 0.857275 7.82711 0.857275H8.25008C8.30746 0.857275 8.35698 0.878454 8.39889 0.920883C8.44075 0.963265 8.46157 1.0135 8.46157 1.07153V3.00003C8.46157 3.05815 8.44066 3.10827 8.39889 3.15068C8.35705 3.1931 8.30746 3.21428 8.25008 3.21428H7.82711C7.76975 3.21431 7.72 3.1931 7.6783 3.15068ZM8.24992 11.1428H10.1538V9.21418H8.24992V11.1428ZM10.1538 8.78572H8.24992V6.64299H10.1538V8.78572ZM8.24992 6.21422H10.1538V4.28574H8.24992V6.21422Z" fill="white" fill-opacity="0.8"/>
</svg>
