<svg width="15" height="15" viewBox="0 0 15 15" fill="none" xmlns="http://www.w3.org/2000/svg">
<path d="M13.9048 6.46118H7.99524V0.680126C7.99524 0.304705 7.68448 0 7.3 0C6.91552 0 6.60476 0.304705 6.60476 0.680126V6.46118H0.695239C0.310763 6.46118 0 6.76588 0 7.1413C0 7.51673 0.310763 7.82143 0.695239 7.82143H6.60476V13.6025C6.60476 13.9779 6.91552 14.2826 7.3 14.2826C7.68448 14.2826 7.99524 13.9779 7.99524 13.6025V7.82143H13.9048C14.2892 7.82143 14.6 7.51673 14.6 7.1413C14.6 6.76588 14.2892 6.46118 13.9048 6.46118Z" fill="white"/>
</svg>
