<svg width="30" height="29" viewBox="0 0 30 29" fill="none" xmlns="http://www.w3.org/2000/svg">
<path d="M15.4178 14.5C15.4178 11.8306 17.5575 9.66662 20.1971 9.66662C22.8366 9.66662 24.9764 11.8306 24.9764 14.5C24.9764 17.1694 22.8366 19.3333 20.1971 19.3333C17.5575 19.3333 15.4178 17.1694 15.4178 14.5Z" fill="#1ABCFE"/>
<path d="M5.8591 24.1666C5.8591 21.4973 7.99887 19.3333 10.6384 19.3333H15.4178V24.1666C15.4178 26.836 13.278 29 10.6384 29C7.99887 29 5.8591 26.836 5.8591 24.1666Z" fill="#0ACF83"/>
<path d="M15.4178 0V9.66664H20.1971C22.8367 9.66664 24.9764 7.5027 24.9764 4.83333C24.9764 2.16396 22.8367 0 20.1971 0H15.4178Z" fill="#FF7262"/>
<path d="M5.85911 4.83333C5.85911 7.50271 7.99889 9.66664 10.6384 9.66664H15.4178V0H10.6384C7.99889 0 5.85911 2.16396 5.85911 4.83333Z" fill="#F24E1E"/>
<path d="M5.8591 14.5C5.8591 17.1694 7.99887 19.3333 10.6384 19.3333H15.4178V9.66662H10.6384C7.99887 9.66662 5.8591 11.8306 5.8591 14.5Z" fill="#A259FF"/>
</svg>
