<svg width="26" height="26" viewBox="0 0 26 26" fill="none" xmlns="http://www.w3.org/2000/svg">
<path d="M22.7094 9.3206L21.158 10.0922C20.5399 10.4073 20.2179 11.0254 20.2179 11.7282V14.8183C20.2179 15.4727 20.0604 16.127 19.7694 16.7208L16.353 22.8028C15.9852 23.6021 14.9901 23.8836 14.258 23.3954C13.6885 23.016 13.4675 22.2867 13.7299 21.6549L17.0793 15.0728C17.0913 15.0728 17.0793 15.0607 17.0913 15.0607C17.1519 14.8669 17.1883 14.673 17.1883 14.4669V10.8314C17.1883 10.4922 16.856 10.2255 16.5166 10.2255C16.1773 10.2255 15.9765 10.4922 15.9765 10.8314V13.2551C15.9765 13.9244 15.434 14.4669 14.7647 14.4669C14.0953 14.4669 13.5528 13.9244 13.5528 13.2551V8.98261C13.5528 7.65008 14.2162 6.42436 15.387 5.78816L20.4915 3.01516C20.5762 2.97887 20.6611 2.95457 20.758 2.95457C20.7971 2.95457 20.8362 2.95851 20.8746 2.96609C21.0874 3.00838 21.261 3.16317 21.3278 3.36956L23.016 8.59177C23.1083 8.87705 22.9778 9.18711 22.7094 9.3206Z" fill="#202142"/>
<path d="M10.6446 14.4661C9.97529 14.4661 9.43281 13.9236 9.43281 13.2543V10.8306C9.43281 10.4914 9.23195 10.2247 8.8927 10.2247C8.55329 10.2247 8.22099 10.4914 8.22099 10.8306V14.4661C8.22099 14.6722 8.25744 14.8659 8.31803 15.0599C8.33002 15.0599 8.31803 15.072 8.33002 15.072L11.6794 21.6541C11.9418 22.2858 11.7206 23.0151 11.1513 23.3946C10.4192 23.8827 9.42413 23.6012 9.05633 22.802L5.63986 16.7201C5.3489 16.1264 5.19142 15.4718 5.19142 14.8175V11.7273C5.19142 11.0245 4.86938 10.4065 4.25131 10.0914L2.69992 9.31979C2.43152 9.18629 2.30103 8.8764 2.39334 8.59095L4.08137 3.3689C4.14812 3.16251 4.32185 3.00756 4.53455 2.96528C4.57305 2.9577 4.61218 2.95376 4.65131 2.95376C4.74819 2.95376 4.83308 2.97806 4.91782 3.01435L10.0222 5.7875C11.1931 6.42355 11.8565 7.64927 11.8565 8.9818V13.2543C11.8565 13.9236 11.314 14.4661 10.6446 14.4661Z" fill="#202142"/>
</svg>
